<mxfile host="app.diagrams.net" agent="Mozilla/5.0 (Windows NT 10.0; Win64; x64) AppleWebKit/537.36 (KHTML, like Gecko) Chrome/138.0.0.0 Safari/537.36" version="28.0.7">
  <diagram id="HoNLFHEf1vTxLUvcGdvg" name="Page-3">
    <mxGraphModel dx="786" dy="451" grid="1" gridSize="10" guides="1" tooltips="1" connect="1" arrows="1" fold="1" page="1" pageScale="1" pageWidth="850" pageHeight="1100" math="0" shadow="0">
      <root>
        <mxCell id="0" />
        <mxCell id="1" parent="0" />
        <mxCell id="JNjko519QvslN-ilPvwc-7" value="" style="edgeStyle=orthogonalEdgeStyle;rounded=0;orthogonalLoop=1;jettySize=auto;html=1;" parent="1" source="JNjko519QvslN-ilPvwc-1" target="JNjko519QvslN-ilPvwc-2" edge="1">
          <mxGeometry relative="1" as="geometry" />
        </mxCell>
        <mxCell id="JNjko519QvslN-ilPvwc-1" value="&lt;h2&gt;&lt;font face=&quot;Times New Roman&quot; style=&quot;font-size: 30px; color: light-dark(rgb(0, 0, 0), rgb(255, 255, 255));&quot;&gt;Start&lt;/font&gt;&lt;/h2&gt;" style="ellipse;whiteSpace=wrap;html=1;gradientColor=light-dark(#000000,#FF194F);fillColor=light-dark(#FFFFFF,#00FF80);" parent="1" vertex="1">
          <mxGeometry x="130" y="20" width="210" height="80" as="geometry" />
        </mxCell>
        <mxCell id="JNjko519QvslN-ilPvwc-8" value="" style="edgeStyle=orthogonalEdgeStyle;rounded=0;orthogonalLoop=1;jettySize=auto;html=1;" parent="1" source="JNjko519QvslN-ilPvwc-2" target="JNjko519QvslN-ilPvwc-3" edge="1">
          <mxGeometry relative="1" as="geometry" />
        </mxCell>
        <mxCell id="JNjko519QvslN-ilPvwc-2" value="&lt;font style=&quot;font-size: 14px;&quot;&gt;New User?&lt;/font&gt;&lt;div&gt;&lt;font style=&quot;font-size: 14px;&quot;&gt;&amp;nbsp;run&amp;nbsp;&lt;/font&gt;&lt;div&gt;&lt;font style=&quot;font-size: 14px;&quot;&gt;create_dataset.py&lt;/font&gt;&lt;/div&gt;&lt;/div&gt;" style="rhombus;whiteSpace=wrap;html=1;gradientColor=light-dark(#000000,#FF194F);fillColor=light-dark(#FFFFFF,#00FF80);" parent="1" vertex="1">
          <mxGeometry x="140" y="150" width="190" height="140" as="geometry" />
        </mxCell>
        <mxCell id="JNjko519QvslN-ilPvwc-9" value="" style="edgeStyle=orthogonalEdgeStyle;rounded=0;orthogonalLoop=1;jettySize=auto;html=1;" parent="1" source="JNjko519QvslN-ilPvwc-3" target="JNjko519QvslN-ilPvwc-4" edge="1">
          <mxGeometry relative="1" as="geometry" />
        </mxCell>
        <mxCell id="JNjko519QvslN-ilPvwc-3" value="&lt;font&gt;Recognize the face&lt;/font&gt;&lt;div&gt;&lt;font&gt;run&lt;/font&gt;&lt;/div&gt;&lt;div&gt;&lt;font&gt;face_recognize.py&lt;/font&gt;&lt;/div&gt;" style="shape=parallelogram;perimeter=parallelogramPerimeter;whiteSpace=wrap;html=1;fixedSize=1;gradientColor=light-dark(#000000,#FF194F);fontSize=14;fillColor=light-dark(#FFFFFF,#00FF80);" parent="1" vertex="1">
          <mxGeometry x="127.5" y="360" width="215" height="90" as="geometry" />
        </mxCell>
        <mxCell id="JNjko519QvslN-ilPvwc-10" value="" style="edgeStyle=orthogonalEdgeStyle;rounded=0;orthogonalLoop=1;jettySize=auto;html=1;" parent="1" source="JNjko519QvslN-ilPvwc-4" target="JNjko519QvslN-ilPvwc-5" edge="1">
          <mxGeometry relative="1" as="geometry" />
        </mxCell>
        <mxCell id="JNjko519QvslN-ilPvwc-4" value="&lt;font style=&quot;font-size: 14px;&quot;&gt;Face Recognize&lt;/font&gt;" style="rhombus;whiteSpace=wrap;html=1;gradientColor=light-dark(#000000,#FF194F);fillColor=light-dark(#FFFFFF,#00FF80);" parent="1" vertex="1">
          <mxGeometry x="140" y="510" width="190" height="130" as="geometry" />
        </mxCell>
        <mxCell id="JNjko519QvslN-ilPvwc-11" value="" style="edgeStyle=orthogonalEdgeStyle;rounded=0;orthogonalLoop=1;jettySize=auto;html=1;" parent="1" source="JNjko519QvslN-ilPvwc-5" target="JNjko519QvslN-ilPvwc-6" edge="1">
          <mxGeometry relative="1" as="geometry" />
        </mxCell>
        <mxCell id="JNjko519QvslN-ilPvwc-5" value="&lt;font style=&quot;font-size: 14px;&quot;&gt;stored in cvs file with registration number and date .time of enter&lt;/font&gt;" style="shape=parallelogram;perimeter=parallelogramPerimeter;whiteSpace=wrap;html=1;fixedSize=1;gradientColor=light-dark(#000000,#FF194F);fillColor=light-dark(#FFFFFF,#00FF80);" parent="1" vertex="1">
          <mxGeometry x="120" y="720" width="230" height="80" as="geometry" />
        </mxCell>
        <mxCell id="JNjko519QvslN-ilPvwc-6" value="&lt;font style=&quot;font-size: 24px;&quot;&gt;End&lt;/font&gt;" style="ellipse;whiteSpace=wrap;html=1;gradientColor=light-dark(#000000,#FF194F);fillColor=light-dark(#FFFFFF,#00FF80);" parent="1" vertex="1">
          <mxGeometry x="130" y="880" width="210" height="110" as="geometry" />
        </mxCell>
        <mxCell id="JNjko519QvslN-ilPvwc-12" value="&lt;font style=&quot;font-size: 15px;&quot;&gt;Give your photograph&lt;/font&gt;" style="rounded=0;whiteSpace=wrap;html=1;gradientColor=light-dark(#000000,#FF194F);fillColor=light-dark(#FFFFFF,#00FF80);" parent="1" vertex="1">
          <mxGeometry x="430" y="190" width="150" height="60" as="geometry" />
        </mxCell>
        <mxCell id="JNjko519QvslN-ilPvwc-15" value="" style="endArrow=none;html=1;rounded=0;entryX=0;entryY=0.5;entryDx=0;entryDy=0;exitX=1;exitY=0.5;exitDx=0;exitDy=0;" parent="1" source="JNjko519QvslN-ilPvwc-2" target="JNjko519QvslN-ilPvwc-12" edge="1">
          <mxGeometry width="50" height="50" relative="1" as="geometry">
            <mxPoint x="295" y="210" as="sourcePoint" />
            <mxPoint x="345" y="160" as="targetPoint" />
          </mxGeometry>
        </mxCell>
        <mxCell id="JNjko519QvslN-ilPvwc-16" value="&lt;font style=&quot;font-size: 15px;&quot;&gt;Store the face data in folder on your name&lt;/font&gt;" style="rounded=0;whiteSpace=wrap;html=1;gradientColor=light-dark(#000000,#FF194F);fillColor=light-dark(#FFFFFF,#00FF80);" parent="1" vertex="1">
          <mxGeometry x="430" y="375" width="150" height="60" as="geometry" />
        </mxCell>
        <mxCell id="JNjko519QvslN-ilPvwc-20" value="" style="endArrow=none;html=1;rounded=0;exitX=0.5;exitY=0;exitDx=0;exitDy=0;entryX=0.5;entryY=1;entryDx=0;entryDy=0;" parent="1" source="JNjko519QvslN-ilPvwc-16" target="JNjko519QvslN-ilPvwc-12" edge="1">
          <mxGeometry width="50" height="50" relative="1" as="geometry">
            <mxPoint x="460" y="280" as="sourcePoint" />
            <mxPoint x="510" y="230" as="targetPoint" />
          </mxGeometry>
        </mxCell>
        <mxCell id="JNjko519QvslN-ilPvwc-22" value="" style="endArrow=none;html=1;rounded=0;exitX=1;exitY=0.5;exitDx=0;exitDy=0;" parent="1" source="JNjko519QvslN-ilPvwc-4" edge="1">
          <mxGeometry width="50" height="50" relative="1" as="geometry">
            <mxPoint x="370" y="540" as="sourcePoint" />
            <mxPoint x="620" y="575" as="targetPoint" />
          </mxGeometry>
        </mxCell>
        <mxCell id="JNjko519QvslN-ilPvwc-23" value="" style="endArrow=none;html=1;rounded=0;" parent="1" edge="1">
          <mxGeometry width="50" height="50" relative="1" as="geometry">
            <mxPoint x="620" y="580" as="sourcePoint" />
            <mxPoint x="620" y="120" as="targetPoint" />
          </mxGeometry>
        </mxCell>
        <mxCell id="JNjko519QvslN-ilPvwc-25" value="" style="endArrow=none;html=1;rounded=0;" parent="1" edge="1">
          <mxGeometry width="50" height="50" relative="1" as="geometry">
            <mxPoint x="510" y="120" as="sourcePoint" />
            <mxPoint x="620" y="120" as="targetPoint" />
          </mxGeometry>
        </mxCell>
        <mxCell id="JNjko519QvslN-ilPvwc-28" value="" style="endArrow=classic;html=1;rounded=0;entryX=0.5;entryY=0;entryDx=0;entryDy=0;" parent="1" target="JNjko519QvslN-ilPvwc-12" edge="1">
          <mxGeometry width="50" height="50" relative="1" as="geometry">
            <mxPoint x="510" y="120" as="sourcePoint" />
            <mxPoint x="500" y="160" as="targetPoint" />
          </mxGeometry>
        </mxCell>
        <mxCell id="JNjko519QvslN-ilPvwc-30" value="No" style="text;html=1;align=center;verticalAlign=middle;resizable=0;points=[];autosize=1;strokeColor=none;fillColor=none;fontSize=21;" parent="1" vertex="1">
          <mxGeometry x="450" y="540" width="50" height="40" as="geometry" />
        </mxCell>
        <mxCell id="JNjko519QvslN-ilPvwc-31" value="" style="endArrow=classic;html=1;rounded=0;entryX=1;entryY=0.5;entryDx=0;entryDy=0;exitX=0;exitY=0.5;exitDx=0;exitDy=0;" parent="1" source="JNjko519QvslN-ilPvwc-16" target="JNjko519QvslN-ilPvwc-3" edge="1">
          <mxGeometry width="50" height="50" relative="1" as="geometry">
            <mxPoint x="320" y="520" as="sourcePoint" />
            <mxPoint x="400" y="420" as="targetPoint" />
          </mxGeometry>
        </mxCell>
        <mxCell id="JNjko519QvslN-ilPvwc-32" value="&lt;font style=&quot;font-size: 18px;&quot;&gt;Yes&lt;/font&gt;" style="text;html=1;align=center;verticalAlign=middle;resizable=0;points=[];autosize=1;strokeColor=none;fillColor=none;" parent="1" vertex="1">
          <mxGeometry x="350" y="190" width="50" height="40" as="geometry" />
        </mxCell>
        <mxCell id="JNjko519QvslN-ilPvwc-34" value="&lt;font style=&quot;font-size: 18px;&quot;&gt;No&lt;/font&gt;" style="text;html=1;align=center;verticalAlign=middle;resizable=0;points=[];autosize=1;strokeColor=none;fillColor=none;" parent="1" vertex="1">
          <mxGeometry x="195" y="303" width="50" height="40" as="geometry" />
        </mxCell>
        <mxCell id="JNjko519QvslN-ilPvwc-38" value="&lt;font style=&quot;font-size: 20px;&quot;&gt;Yes&lt;/font&gt;" style="text;html=1;align=center;verticalAlign=middle;resizable=0;points=[];autosize=1;strokeColor=none;fillColor=none;" parent="1" vertex="1">
          <mxGeometry x="185" y="660" width="60" height="40" as="geometry" />
        </mxCell>
      </root>
    </mxGraphModel>
  </diagram>
</mxfile>
